%
M48
M72
T01C0.0236
T02C0.0320
T03C0.0354
T04C0.0394
T05C0.0400
T06C0.0430
T07C0.0440
T08C0.0472
T09C0.0866
T10C0.1180
%
T01
X15375Y13625
X12500Y15875
X10625Y15125
X19625Y15375
X20625Y16500
X20625Y13625
X15500Y22750
X31314Y30609
X33125Y32875
X37439Y28125
X39375Y28125
X42125Y27625
X38875Y24625
X36125Y24875
X36125Y23875
X41000Y22375
X40625Y20125
X44875Y17125
X50125Y16125
X46125Y27625
T02
X21875Y30375
X20875Y30375
X18625Y30375
X17625Y30375
X14750Y26875
X13750Y26875
X13750Y33875
X14750Y33875
X14750Y19625
X13750Y19625
X13125Y12375
X12125Y12375
T03
X15875Y11875
X18875Y11875
X22875Y11750
X25875Y11750
X29875Y11625
X32875Y11625
X36875Y11875
X39875Y11875
X43625Y11875
X46625Y11875
X50625Y11875
X53625Y11875
T04
X54062Y12875
X52875Y10625
X51875Y10625
X50125Y12875
X46937Y12750
X45875Y10625
X44875Y10625
X43000Y12750
X40437Y12750
X38875Y10625
X37875Y10625
X36500Y12750
X33312Y12625
X31875Y10625
X30875Y10625
X29375Y12625
X26312Y12750
X24875Y10625
X23875Y10625
X22375Y12750
X19312Y12875
X17725Y10625
X16725Y10625
X15375Y12875
X15625Y15125
X11688Y15125
X10625Y12875
X10625Y11875
X10625Y19125
X10625Y20125
X11688Y21875
X15625Y21875
X10625Y26375
X10625Y27375
X11438Y29125
X12188Y31875
X10625Y33625
X10625Y34625
X16125Y31875
X15375Y29125
X16375Y27625
X20312Y27625
X21125Y27625
X23625Y29625
X23625Y30625
X25062Y27625
X27562Y29625
X27562Y30625
X24875Y37125
X23875Y37125
X18125Y37125
X17125Y37125
X30625Y37125
X31625Y37125
X37375Y37125
X38375Y37125
X44125Y37125
X45125Y37125
X45125Y33812
X46125Y33812
X47125Y33812
X48125Y33812
X49125Y33812
X50125Y33812
X50875Y37125
X51875Y37125
X50125Y29875
X49125Y29875
X48125Y29875
X47125Y29875
X46125Y29875
X45125Y29875
X44125Y23125
X42125Y23125
X42125Y21125
X44125Y21125
X47125Y21125
X47125Y23125
X49625Y23125
X49625Y21125
X52625Y21125
X52625Y23125
X39125Y23125
X39125Y21125
X36375Y21125
X36375Y23125
X33375Y23125
X31625Y22875
X33375Y21125
X31625Y20875
X28625Y20875
X28625Y22875
X26125Y22875
X26125Y20875
X23125Y20875
X23125Y22875
T05
X22875Y25255
X21875Y25255
X20875Y25255
X19375Y25255
X18375Y25255
X17375Y25255
X30375Y34125
X31375Y34125
X32375Y34125
X33375Y34125
X34375Y34125
X35375Y34125
X37375Y34125
X38375Y34125
X39375Y34125
X40375Y34125
X41375Y34125
X42375Y34125
X39375Y31255
X38375Y31255
X37375Y31255
X34875Y31255
X33875Y31255
X32875Y31255
X32375Y15125
X31375Y15125
X30375Y15125
X33375Y15125
X34375Y15125
X35375Y15125
X36375Y15125
X37375Y15125
X38875Y15125
X39875Y15125
X40875Y15125
X41875Y15125
X42875Y15125
X43875Y15125
X44875Y15125
X45875Y15125
T06
X40875Y26375
X40875Y27375
X39875Y27375
X39875Y26375
X38875Y26375
X37875Y26375
X37875Y27375
X38875Y27375
X36875Y27375
X36875Y26375
X35875Y26375
X35875Y27375
X34875Y27375
X33875Y27375
X33875Y26375
X34875Y26375
T07
X34625Y18625
X33625Y18625
X35625Y18625
X38875Y18625
X39875Y18625
X40875Y18625
X44625Y18625
X45625Y18625
X46625Y18625
X49625Y18625
X50625Y18625
X51625Y18625
X30875Y18625
X29875Y18625
X28875Y18625
X25875Y18375
X24875Y18375
X23875Y18375
T08
X23247Y8625
X24625Y8625
X30247Y8625
X31625Y8625
X37247Y8625
X38625Y8625
X44247Y8625
X45625Y8625
X51247Y8625
X52625Y8625
X29003Y33125
X27625Y33125
X25503Y33125
X24125Y33125
X22003Y33125
X20625Y33125
X19003Y33125
X17625Y33125
X17375Y39125
X18753Y39125
X24125Y39125
X25503Y39125
X30875Y39125
X32253Y39125
X37625Y39125
X39003Y39125
X44375Y39375
X45753Y39375
X51375Y39125
X52753Y39125
X17375Y8625
X15997Y8625
X8875Y12375
X8875Y13753
X9125Y19375
X9125Y20753
X8875Y26625
X8875Y28003
X8875Y33875
X8875Y35253
T09
X8625Y10875
X8625Y14875
X8625Y18125
X8625Y22125
X8625Y25375
X8625Y29375
X8625Y32625
X8625Y36625
X16125Y39125
X20125Y39125
X22875Y39125
X26875Y39125
X29625Y39125
X33625Y39125
X36375Y39125
X40375Y39125
X43125Y39125
X47125Y39125
X49875Y39125
X53875Y39125
X53875Y8625
X49875Y8625
X46875Y8625
X42875Y8625
X39875Y8625
X35875Y8625
X32875Y8625
X28875Y8625
X25875Y8625
X21875Y8625
X18725Y8625
X14725Y8625
T10
X51231Y28125
X52412Y29975
X53594Y28125
M30
